# xmcd
#
# Track frame offsets:
#	222
#	24457
#	42065
#
# Disc length: 1217 seconds
# Revision: 0
# Processed by: cddbd v1.5.2PL0 Copyright (c) Steve Scherf et al.
# Submitted via: dBpowerAMP V12.0
#
DISCID=1804bf03
DTITLE=Tina Turner - Addicted to Love
DYEAR=1988
DGENRE=R&B
TTITLE0=Addicted to Love
TTITLE1=Overnight Sensation
TTITLE2=Legs
EXTD=
EXTT0=
EXTT1=
EXTT2=
PLAYORDER=
